# xmcd CD database file
# Copyright (C) 1993-1998 Ti Kan
#
# Track frame offsets:
# 150
# 19462
# 38250
# 56252
# 82292
# 92130
# 113780
# 133017
# 150495
# 171862
# 186407
# 204277
#
# Disc length: 3081 seconds
# Revision: 0
# Processed by: cddbd v1.4b41PL1 Copyright (c) Steve Scherf et al.
# Submitted via: CDSpectrumPro v3.3.335
#
DISCID=990c070c
DTITLE=Lori Pappajohn:Celtic harp, flute, bells: Finn Manniche: Cell - Celtic 
DTITLE=Harp For Christmas
DYEAR=1900
DGENRE=
TTITLE0=God Rest Ye Merry Gentlemen
TTITLE1=I Wonder as I Wander
TTITLE2=Silent Night
TTITLE3=Friendly Beasts - Away in the Manger
TTITLE4=While Shepherds Watched Their Flocks By Night
TTITLE5=Bring a Torch, Jeanette, Isabella I Saw Three Ships
TTITLE6=Huron Carol
TTITLE7=Good King Wenceslas
TTITLE8=What Child is This
TTITLE9=Frankencense
TTITLE10=A Vos dona Verge Santa Maria
TTITLE11=O Come, O Come Emmanuel
EXTD=
EXTT0=
EXTT1=
EXTT2=
EXTT3=
EXTT4=
EXTT5=
EXTT6=
EXTT7=
EXTT8=
EXTT9=
EXTT10=
EXTT11=
PLAYORDER=
